<svg xmlns="http://www.w3.org/2000/svg" viewBox="0 0 1920 1080" preserveAspectRatio="xMidYMax slice">
  <defs>
    <linearGradient id="sky" x1="0" y1="0" x2="0" y2="1">
      <stop offset="0" stop-color="#050820"/>
      <stop offset="0.5" stop-color="#0f1a3a"/>
      <stop offset="0.85" stop-color="#3a1f55"/>
      <stop offset="1" stop-color="#2a1545"/>
    </linearGradient>
    <radialGradient id="moonGlow" cx="0.5" cy="0.5" r="0.5">
      <stop offset="0" stop-color="#fff5d0" stop-opacity="0.9"/>
      <stop offset="0.4" stop-color="#fff5d0" stop-opacity="0.25"/>
      <stop offset="1" stop-color="#fff5d0" stop-opacity="0"/>
    </radialGradient>
    <linearGradient id="ground" x1="0" y1="0" x2="0" y2="1">
      <stop offset="0" stop-color="#141022"/>
      <stop offset="1" stop-color="#050410"/>
    </linearGradient>
  </defs>
  <rect width="1920" height="1080" fill="url(#sky)"/>
  <g fill="#fff">
    <circle cx="120" cy="80" r="1.2" opacity="0.9"/><circle cx="280" cy="140" r="0.8" opacity="0.7"/><circle cx="420" cy="60" r="1.5" opacity="0.95"/><circle cx="580" cy="180" r="0.9" opacity="0.6"/><circle cx="740" cy="100" r="1.1" opacity="0.8"/><circle cx="900" cy="200" r="0.7" opacity="0.5"/><circle cx="1080" cy="50" r="1.3" opacity="0.9"/><circle cx="1240" cy="160" r="1" opacity="0.7"/><circle cx="1400" cy="90" r="1.4" opacity="0.95"/><circle cx="1560" cy="190" r="0.8" opacity="0.6"/><circle cx="1720" cy="70" r="1.2" opacity="0.85"/><circle cx="1860" cy="150" r="0.9" opacity="0.7"/><circle cx="350" cy="250" r="0.6" opacity="0.5"/><circle cx="670" cy="280" r="0.8" opacity="0.6"/><circle cx="990" cy="320" r="0.7" opacity="0.5"/><circle cx="1310" cy="250" r="1" opacity="0.7"/><circle cx="1630" cy="300" r="0.8" opacity="0.55"/>
  </g>
  <circle cx="1550" cy="200" r="140" fill="url(#moonGlow)"/>
  <circle cx="1550" cy="200" r="62" fill="#fff5d0" opacity="0.95"/>
  <circle cx="1530" cy="180" r="8" fill="#d8ccaa" opacity="0.5"/>
  <circle cx="1565" cy="215" r="5" fill="#d8ccaa" opacity="0.4"/>
  <circle cx="1545" cy="225" r="6" fill="#d8ccaa" opacity="0.45"/>
  <g fill="#1a2540" opacity="0.6">
    <rect x="0" y="550" width="80" height="350"/><rect x="80" y="520" width="60" height="380"/><rect x="140" y="570" width="90" height="330"/><rect x="230" y="500" width="70" height="400"/><rect x="300" y="540" width="80" height="360"/><rect x="380" y="580" width="60" height="320"/><rect x="440" y="510" width="90" height="390"/><rect x="530" y="550" width="70" height="350"/><rect x="600" y="490" width="100" height="410"/><rect x="700" y="540" width="70" height="360"/><rect x="770" y="500" width="80" height="400"/><rect x="850" y="560" width="90" height="340"/><rect x="940" y="520" width="70" height="380"/><rect x="1010" y="480" width="85" height="420"/><rect x="1095" y="540" width="75" height="360"/><rect x="1170" y="510" width="90" height="390"/><rect x="1260" y="560" width="70" height="340"/><rect x="1330" y="520" width="80" height="380"/><rect x="1410" y="560" width="70" height="340"/><rect x="1480" y="530" width="85" height="370"/><rect x="1565" y="500" width="75" height="400"/><rect x="1640" y="560" width="80" height="340"/><rect x="1720" y="530" width="70" height="370"/><rect x="1790" y="570" width="80" height="330"/><rect x="1870" y="540" width="50" height="360"/>
  </g>
  <g fill="#0a0e1c">
    <rect x="50" y="480" width="110" height="600"/><rect x="180" y="400" width="130" height="680"/><rect x="330" y="450" width="100" height="630"/><rect x="450" y="350" width="140" height="730"/><polygon points="520,350 460,280 510,280 590,350"/><rect x="610" y="420" width="120" height="660"/><rect x="750" y="300" width="150" height="780"/><polygon points="825,300 765,240 885,240"/><rect x="920" y="380" width="110" height="700"/><rect x="1050" y="340" width="135" height="740"/><rect x="1205" y="420" width="120" height="660"/><rect x="1345" y="370" width="140" height="710"/><polygon points="1415,370 1360,320 1470,320"/><rect x="1505" y="440" width="115" height="640"/><rect x="1640" y="400" width="125" height="680"/><rect x="1785" y="460" width="135" height="620"/>
  </g>
  <g fill="#ffd070">
    <rect x="65" y="510" width="8" height="12" opacity="0.9"/><rect x="85" y="510" width="8" height="12" opacity="0.7"/><rect x="115" y="510" width="8" height="12" opacity="0.85"/><rect x="135" y="510" width="8" height="12" opacity="0.6"/><rect x="65" y="540" width="8" height="12" opacity="0.75"/><rect x="105" y="540" width="8" height="12" opacity="0.9"/><rect x="145" y="540" width="8" height="12" opacity="0.7"/><rect x="75" y="570" width="8" height="12" opacity="0.85"/><rect x="125" y="570" width="8" height="12" opacity="0.6"/><rect x="65" y="600" width="8" height="12" opacity="0.95"/><rect x="95" y="600" width="8" height="12" opacity="0.7"/><rect x="135" y="600" width="8" height="12" opacity="0.8"/><rect x="85" y="630" width="8" height="12" opacity="0.6"/><rect x="125" y="630" width="8" height="12" opacity="0.9"/><rect x="65" y="660" width="8" height="12" opacity="0.75"/><rect x="115" y="660" width="8" height="12" opacity="0.85"/><rect x="145" y="660" width="8" height="12" opacity="0.65"/>
    <rect x="200" y="430" width="10" height="14" opacity="0.9"/><rect x="225" y="430" width="10" height="14" opacity="0.7"/><rect x="260" y="430" width="10" height="14" opacity="0.85"/><rect x="285" y="430" width="10" height="14" opacity="0.9"/><rect x="200" y="470" width="10" height="14" opacity="0.6"/><rect x="240" y="470" width="10" height="14" opacity="0.95"/><rect x="280" y="470" width="10" height="14" opacity="0.75"/><rect x="215" y="510" width="10" height="14" opacity="0.8"/><rect x="260" y="510" width="10" height="14" opacity="0.7"/><rect x="200" y="550" width="10" height="14" opacity="0.9"/><rect x="235" y="550" width="10" height="14" opacity="0.65"/><rect x="275" y="550" width="10" height="14" opacity="0.85"/><rect x="205" y="590" width="10" height="14" opacity="0.75"/><rect x="250" y="590" width="10" height="14" opacity="0.9"/><rect x="285" y="590" width="10" height="14" opacity="0.6"/><rect x="220" y="630" width="10" height="14" opacity="0.85"/><rect x="265" y="630" width="10" height="14" opacity="0.7"/>
    <rect x="345" y="480" width="9" height="13" opacity="0.8"/><rect x="370" y="480" width="9" height="13" opacity="0.9"/><rect x="400" y="480" width="9" height="13" opacity="0.65"/><rect x="360" y="520" width="9" height="13" opacity="0.95"/><rect x="390" y="520" width="9" height="13" opacity="0.7"/><rect x="350" y="560" width="9" height="13" opacity="0.75"/><rect x="385" y="560" width="9" height="13" opacity="0.9"/><rect x="415" y="560" width="9" height="13" opacity="0.6"/><rect x="365" y="600" width="9" height="13" opacity="0.85"/><rect x="400" y="600" width="9" height="13" opacity="0.7"/>
    <rect x="470" y="380" width="11" height="15" opacity="0.95"/><rect x="500" y="380" width="11" height="15" opacity="0.7"/><rect x="535" y="380" width="11" height="15" opacity="0.85"/><rect x="570" y="380" width="11" height="15" opacity="0.6"/><rect x="475" y="420" width="11" height="15" opacity="0.9"/><rect x="515" y="420" width="11" height="15" opacity="0.75"/><rect x="555" y="420" width="11" height="15" opacity="0.85"/><rect x="470" y="460" width="11" height="15" opacity="0.65"/><rect x="510" y="460" width="11" height="15" opacity="0.95"/><rect x="550" y="460" width="11" height="15" opacity="0.8"/><rect x="490" y="500" width="11" height="15" opacity="0.7"/><rect x="530" y="500" width="11" height="15" opacity="0.9"/><rect x="570" y="500" width="11" height="15" opacity="0.55"/><rect x="475" y="540" width="11" height="15" opacity="0.85"/><rect x="520" y="540" width="11" height="15" opacity="0.7"/><rect x="565" y="540" width="11" height="15" opacity="0.9"/>
    <rect x="630" y="450" width="10" height="14" opacity="0.85"/><rect x="665" y="450" width="10" height="14" opacity="0.9"/><rect x="700" y="450" width="10" height="14" opacity="0.65"/><rect x="640" y="490" width="10" height="14" opacity="0.75"/><rect x="680" y="490" width="10" height="14" opacity="0.95"/><rect x="715" y="490" width="10" height="14" opacity="0.7"/><rect x="625" y="530" width="10" height="14" opacity="0.85"/><rect x="670" y="530" width="10" height="14" opacity="0.6"/><rect x="710" y="530" width="10" height="14" opacity="0.9"/><rect x="650" y="570" width="10" height="14" opacity="0.7"/><rect x="690" y="570" width="10" height="14" opacity="0.85"/>
    <rect x="775" y="330" width="12" height="16" opacity="0.9"/><rect x="810" y="330" width="12" height="16" opacity="0.7"/><rect x="850" y="330" width="12" height="16" opacity="0.95"/><rect x="885" y="330" width="12" height="16" opacity="0.65"/><rect x="775" y="370" width="12" height="16" opacity="0.8"/><rect x="820" y="370" width="12" height="16" opacity="0.9"/><rect x="870" y="370" width="12" height="16" opacity="0.75"/><rect x="780" y="410" width="12" height="16" opacity="0.95"/><rect x="825" y="410" width="12" height="16" opacity="0.6"/><rect x="865" y="410" width="12" height="16" opacity="0.85"/><rect x="790" y="450" width="12" height="16" opacity="0.7"/><rect x="835" y="450" width="12" height="16" opacity="0.9"/><rect x="875" y="450" width="12" height="16" opacity="0.55"/><rect x="775" y="490" width="12" height="16" opacity="0.85"/><rect x="815" y="490" width="12" height="16" opacity="0.75"/><rect x="860" y="490" width="12" height="16" opacity="0.9"/><rect x="790" y="530" width="12" height="16" opacity="0.65"/><rect x="830" y="530" width="12" height="16" opacity="0.85"/><rect x="875" y="530" width="12" height="16" opacity="0.7"/>
    <rect x="940" y="410" width="10" height="14" opacity="0.85"/><rect x="975" y="410" width="10" height="14" opacity="0.7"/><rect x="1010" y="410" width="10" height="14" opacity="0.9"/><rect x="945" y="450" width="10" height="14" opacity="0.6"/><rect x="990" y="450" width="10" height="14" opacity="0.85"/><rect x="1020" y="450" width="10" height="14" opacity="0.75"/><rect x="940" y="490" width="10" height="14" opacity="0.9"/><rect x="980" y="490" width="10" height="14" opacity="0.65"/><rect x="1015" y="490" width="10" height="14" opacity="0.85"/>
    <rect x="1075" y="370" width="11" height="15" opacity="0.95"/><rect x="1110" y="370" width="11" height="15" opacity="0.75"/><rect x="1145" y="370" width="11" height="15" opacity="0.9"/><rect x="1075" y="410" width="11" height="15" opacity="0.65"/><rect x="1115" y="410" width="11" height="15" opacity="0.85"/><rect x="1155" y="410" width="11" height="15" opacity="0.7"/><rect x="1080" y="450" width="11" height="15" opacity="0.95"/><rect x="1120" y="450" width="11" height="15" opacity="0.6"/><rect x="1160" y="450" width="11" height="15" opacity="0.85"/><rect x="1090" y="490" width="11" height="15" opacity="0.8"/><rect x="1130" y="490" width="11" height="15" opacity="0.9"/><rect x="1165" y="490" width="11" height="15" opacity="0.55"/>
    <rect x="1230" y="450" width="10" height="14" opacity="0.85"/><rect x="1265" y="450" width="10" height="14" opacity="0.7"/><rect x="1300" y="450" width="10" height="14" opacity="0.9"/><rect x="1240" y="490" width="10" height="14" opacity="0.75"/><rect x="1285" y="490" width="10" height="14" opacity="0.95"/><rect x="1225" y="530" width="10" height="14" opacity="0.8"/><rect x="1275" y="530" width="10" height="14" opacity="0.65"/><rect x="1310" y="530" width="10" height="14" opacity="0.9"/>
    <rect x="1365" y="400" width="11" height="15" opacity="0.9"/><rect x="1400" y="400" width="11" height="15" opacity="0.7"/><rect x="1440" y="400" width="11" height="15" opacity="0.85"/><rect x="1475" y="400" width="11" height="15" opacity="0.6"/><rect x="1365" y="440" width="11" height="15" opacity="0.75"/><rect x="1410" y="440" width="11" height="15" opacity="0.95"/><rect x="1455" y="440" width="11" height="15" opacity="0.7"/><rect x="1370" y="480" width="11" height="15" opacity="0.85"/><rect x="1415" y="480" width="11" height="15" opacity="0.6"/><rect x="1460" y="480" width="11" height="15" opacity="0.9"/><rect x="1385" y="520" width="11" height="15" opacity="0.75"/><rect x="1425" y="520" width="11" height="15" opacity="0.85"/><rect x="1465" y="520" width="11" height="15" opacity="0.65"/>
    <rect x="1525" y="470" width="10" height="14" opacity="0.85"/><rect x="1560" y="470" width="10" height="14" opacity="0.95"/><rect x="1595" y="470" width="10" height="14" opacity="0.6"/><rect x="1530" y="510" width="10" height="14" opacity="0.75"/><rect x="1575" y="510" width="10" height="14" opacity="0.9"/><rect x="1605" y="510" width="10" height="14" opacity="0.7"/><rect x="1525" y="550" width="10" height="14" opacity="0.9"/><rect x="1570" y="550" width="10" height="14" opacity="0.6"/><rect x="1605" y="550" width="10" height="14" opacity="0.85"/>
    <rect x="1660" y="430" width="11" height="15" opacity="0.8"/><rect x="1695" y="430" width="11" height="15" opacity="0.95"/><rect x="1735" y="430" width="11" height="15" opacity="0.65"/><rect x="1660" y="470" width="11" height="15" opacity="0.9"/><rect x="1705" y="470" width="11" height="15" opacity="0.7"/><rect x="1745" y="470" width="11" height="15" opacity="0.85"/><rect x="1670" y="510" width="11" height="15" opacity="0.75"/><rect x="1710" y="510" width="11" height="15" opacity="0.95"/><rect x="1750" y="510" width="11" height="15" opacity="0.6"/>
    <rect x="1810" y="490" width="10" height="14" opacity="0.85"/><rect x="1845" y="490" width="10" height="14" opacity="0.65"/><rect x="1880" y="490" width="10" height="14" opacity="0.9"/><rect x="1815" y="530" width="10" height="14" opacity="0.75"/><rect x="1860" y="530" width="10" height="14" opacity="0.95"/><rect x="1810" y="570" width="10" height="14" opacity="0.7"/><rect x="1855" y="570" width="10" height="14" opacity="0.85"/>
  </g>
  <rect x="0" y="830" width="1920" height="250" fill="url(#ground)"/>
  <g fill="#ffd070" opacity="0.15">
    <rect x="200" y="860" width="2" height="40"/><rect x="350" y="870" width="2" height="35"/><rect x="520" y="855" width="2" height="45"/><rect x="780" y="860" width="2" height="42"/><rect x="960" y="870" width="2" height="38"/><rect x="1140" y="855" width="2" height="44"/><rect x="1380" y="865" width="2" height="40"/><rect x="1550" y="870" width="2" height="36"/><rect x="1720" y="860" width="2" height="42"/>
  </g>
</svg>
