<svg xmlns="http://www.w3.org/2000/svg" viewBox="0 0 1920 1080" preserveAspectRatio="xMidYMax slice">
  <defs>
    <linearGradient id="desSky" x1="0" y1="0" x2="0" y2="1"><stop offset="0" stop-color="#ffd9a5"/><stop offset="0.35" stop-color="#ffa870"/><stop offset="0.7" stop-color="#ff8050"/><stop offset="1" stop-color="#b84828"/></linearGradient>
    <radialGradient id="desSunGlow" cx="0.5" cy="0.5" r="0.5"><stop offset="0" stop-color="#fff5d0" stop-opacity="1"/><stop offset="0.35" stop-color="#ffe080" stop-opacity="0.7"/><stop offset="1" stop-color="#ffb040" stop-opacity="0"/></radialGradient>
    <linearGradient id="duneFar" x1="0" y1="0" x2="0" y2="1"><stop offset="0" stop-color="#d8804a"/><stop offset="1" stop-color="#a85830"/></linearGradient>
    <linearGradient id="duneMid" x1="0" y1="0" x2="0" y2="1"><stop offset="0" stop-color="#c46a35"/><stop offset="1" stop-color="#8a4418"/></linearGradient>
    <linearGradient id="duneNear" x1="0" y1="0" x2="0" y2="1"><stop offset="0" stop-color="#a85020"/><stop offset="1" stop-color="#6a3010"/></linearGradient>
    <linearGradient id="sand" x1="0" y1="0" x2="0" y2="1"><stop offset="0" stop-color="#8a3d15"/><stop offset="1" stop-color="#4e2208"/></linearGradient>
  </defs>
  <rect width="1920" height="1080" fill="url(#desSky)"/>
  <circle cx="1100" cy="480" r="260" fill="url(#desSunGlow)"/>
  <circle cx="1100" cy="480" r="110" fill="#fff5d0" opacity="0.95"/>
  <circle cx="1100" cy="480" r="95" fill="#ffea98"/>
  <rect x="0" y="530" width="1920" height="20" fill="#ff8050" opacity="0.3"/>
  <path d="M 0 620 Q 200 560 400 600 Q 600 640 800 580 Q 1000 530 1200 580 Q 1400 620 1600 570 Q 1800 540 1920 590 L 1920 720 L 0 720 Z" fill="url(#duneFar)" opacity="0.85"/>
  <path d="M 0 730 Q 250 650 500 700 Q 750 750 1000 680 Q 1250 620 1500 690 Q 1700 740 1920 680 L 1920 820 L 0 820 Z" fill="url(#duneMid)"/>
  <path d="M 0 830 Q 300 730 600 800 Q 900 870 1200 770 Q 1450 700 1700 790 Q 1850 830 1920 780 L 1920 920 L 0 920 Z" fill="url(#duneNear)"/>
  <rect x="0" y="900" width="1920" height="180" fill="url(#sand)"/>
  <g fill="#3a1a08" opacity="0.4">
    <path d="M 0 950 Q 100 945 200 950 Q 300 955 400 950 Q 500 945 600 950 Q 700 955 800 950 Q 900 945 1000 950 Q 1100 955 1200 950 Q 1300 945 1400 950 Q 1500 955 1600 950 Q 1700 945 1800 950 Q 1900 955 1920 950 L 1920 952 L 0 952 Z"/>
    <path d="M 0 990 Q 120 985 240 992 Q 360 998 480 990 Q 600 985 720 992 Q 840 998 960 990 Q 1080 985 1200 992 Q 1320 998 1440 990 Q 1560 985 1680 992 Q 1800 998 1920 990 L 1920 994 L 0 994 Z"/>
    <path d="M 0 1030 Q 140 1025 280 1032 Q 420 1038 560 1030 Q 700 1025 840 1032 Q 980 1038 1120 1030 Q 1260 1025 1400 1032 Q 1540 1038 1680 1030 Q 1820 1025 1920 1032 L 1920 1036 L 0 1036 Z"/>
  </g>
  <g fill="#2a5020">
    <rect x="200" y="780" width="24" height="110" rx="8"/><rect x="180" y="810" width="14" height="40" rx="6"/><rect x="178" y="808" width="18" height="10" rx="4"/><rect x="226" y="820" width="14" height="45" rx="6"/><rect x="224" y="818" width="18" height="10" rx="4"/>
    <rect x="1560" y="740" width="28" height="160" rx="9"/><rect x="1534" y="790" width="16" height="50" rx="6"/><rect x="1532" y="788" width="20" height="12" rx="4"/><rect x="1590" y="800" width="16" height="55" rx="6"/><rect x="1588" y="798" width="20" height="12" rx="4"/>
    <rect x="1720" y="830" width="18" height="70" rx="6"/><rect x="1708" y="850" width="10" height="28" rx="4"/>
  </g>
  <g stroke="#1a3a12" stroke-width="1.5" fill="none" opacity="0.6">
    <line x1="207" y1="785" x2="207" y2="885"/><line x1="214" y1="785" x2="214" y2="885"/><line x1="221" y1="785" x2="221" y2="885"/><line x1="1568" y1="745" x2="1568" y2="895"/><line x1="1576" y1="745" x2="1576" y2="895"/><line x1="1585" y1="745" x2="1585" y2="895"/>
  </g>
  <g fill="#1a0c02" opacity="0.4">
    <ellipse cx="212" cy="895" rx="40" ry="6"/><ellipse cx="1574" cy="900" rx="50" ry="7"/><ellipse cx="1729" cy="900" rx="25" ry="4"/>
  </g>
  <g fill="none" stroke="#3a1a08" stroke-width="2" stroke-linecap="round">
    <path d="M 400 230 Q 410 222 420 230 Q 430 222 440 230"/><path d="M 500 270 Q 507 264 514 270 Q 521 264 528 270"/><path d="M 580 250 Q 589 242 598 250 Q 607 242 616 250"/>
  </g>
  <rect x="0" y="590" width="1920" height="30" fill="#ff8050" opacity="0.15"/>
</svg>
