<svg xmlns="http://www.w3.org/2000/svg" viewBox="0 0 1920 1080" preserveAspectRatio="xMidYMax slice">
  <defs>
    <linearGradient id="mtnSky" x1="0" y1="0" x2="0" y2="1"><stop offset="0" stop-color="#7ea5c5"/><stop offset="0.4" stop-color="#b8d0e0"/><stop offset="0.7" stop-color="#e8dccf"/><stop offset="1" stop-color="#c8a890"/></linearGradient>
    <linearGradient id="mtnFar" x1="0" y1="0" x2="0" y2="1"><stop offset="0" stop-color="#8a9db2"/><stop offset="1" stop-color="#6a7a8f"/></linearGradient>
    <linearGradient id="mtnMid" x1="0" y1="0" x2="0" y2="1"><stop offset="0" stop-color="#4a5d75"/><stop offset="1" stop-color="#2f4258"/></linearGradient>
    <linearGradient id="mtnNear" x1="0" y1="0" x2="0" y2="1"><stop offset="0" stop-color="#28384a"/><stop offset="1" stop-color="#1a2635"/></linearGradient>
    <linearGradient id="mtnGround" x1="0" y1="0" x2="0" y2="1"><stop offset="0" stop-color="#3e5540"/><stop offset="1" stop-color="#1f2f20"/></linearGradient>
  </defs>
  <rect width="1920" height="1080" fill="url(#mtnSky)"/>
  <circle cx="1350" cy="280" r="120" fill="#fff0cc" opacity="0.4"/>
  <circle cx="1350" cy="280" r="70" fill="#fff5d8" opacity="0.7"/>
  <g fill="#fff" opacity="0.6">
    <ellipse cx="200" cy="180" rx="140" ry="22"/><ellipse cx="460" cy="220" rx="180" ry="18"/><ellipse cx="780" cy="160" rx="160" ry="24"/><ellipse cx="1100" cy="240" rx="200" ry="20"/><ellipse cx="1600" cy="170" rx="170" ry="22"/><ellipse cx="1850" cy="250" rx="130" ry="18"/>
  </g>
  <polygon points="0,580 150,480 280,520 450,420 620,480 780,400 920,460 1100,380 1270,440 1420,360 1580,420 1750,380 1920,440 1920,700 0,700" fill="url(#mtnFar)" opacity="0.75"/>
  <g fill="#fff" opacity="0.85">
    <polygon points="440,430 450,420 465,440"/><polygon points="770,410 780,400 795,420"/><polygon points="1090,390 1100,380 1115,400"/><polygon points="1410,370 1420,360 1435,380"/>
  </g>
  <polygon points="0,700 100,580 240,640 400,520 560,600 720,480 880,580 1060,460 1220,560 1380,440 1540,540 1700,460 1860,560 1920,520 1920,800 0,800" fill="url(#mtnMid)"/>
  <g fill="#fff" opacity="0.9">
    <polygon points="385,545 400,520 420,550 395,555"/><polygon points="708,505 720,480 740,510 715,515"/><polygon points="1045,485 1060,460 1080,490 1055,495"/><polygon points="1368,465 1380,440 1400,470 1375,475"/><polygon points="1685,485 1700,460 1720,490 1695,495"/>
  </g>
  <polygon points="0,800 120,720 280,760 440,680 620,740 800,650 980,720 1160,640 1340,710 1500,650 1680,720 1860,680 1920,700 1920,900 0,900" fill="url(#mtnNear)"/>
  <g fill="#1a2820">
    <polygon points="50,810 60,780 70,810"/><polygon points="80,820 90,785 100,820"/><polygon points="110,815 120,790 130,815"/><polygon points="150,825 160,795 170,825"/><polygon points="190,820 200,790 210,820"/><polygon points="230,815 240,785 250,815"/><polygon points="300,810 310,780 320,810"/><polygon points="340,820 350,790 360,820"/><polygon points="380,815 390,785 400,815"/><polygon points="460,800 470,770 480,800"/><polygon points="500,810 510,780 520,810"/><polygon points="540,815 550,785 560,815"/><polygon points="640,790 650,760 660,790"/><polygon points="680,800 690,770 700,800"/><polygon points="720,795 730,765 740,795"/><polygon points="820,780 830,750 840,780"/><polygon points="860,790 870,760 880,790"/><polygon points="900,785 910,755 920,785"/><polygon points="1000,780 1010,750 1020,780"/><polygon points="1040,790 1050,760 1060,790"/><polygon points="1080,785 1090,755 1100,785"/><polygon points="1180,770 1190,740 1200,770"/><polygon points="1220,780 1230,750 1240,780"/><polygon points="1260,775 1270,745 1280,775"/><polygon points="1360,800 1370,770 1380,800"/><polygon points="1400,810 1410,780 1420,810"/><polygon points="1520,790 1530,760 1540,790"/><polygon points="1560,800 1570,770 1580,800"/><polygon points="1600,795 1610,765 1620,795"/><polygon points="1700,800 1710,770 1720,800"/><polygon points="1740,810 1750,780 1760,810"/><polygon points="1780,805 1790,775 1800,805"/><polygon points="1820,815 1830,785 1840,815"/><polygon points="1860,800 1870,770 1880,800"/>
  </g>
  <rect x="0" y="880" width="1920" height="200" fill="url(#mtnGround)"/>
  <g fill="#3a552a" opacity="0.8">
    <rect x="100" y="895" width="3" height="8"/><rect x="150" y="900" width="2" height="6"/><rect x="220" y="890" width="3" height="10"/><rect x="310" y="905" width="2" height="7"/><rect x="410" y="892" width="3" height="9"/><rect x="510" y="900" width="2" height="8"/><rect x="620" y="895" width="3" height="7"/><rect x="740" y="905" width="2" height="9"/><rect x="860" y="890" width="3" height="10"/><rect x="980" y="898" width="2" height="7"/><rect x="1100" y="895" width="3" height="8"/><rect x="1230" y="902" width="2" height="9"/><rect x="1360" y="888" width="3" height="10"/><rect x="1490" y="895" width="2" height="8"/><rect x="1620" y="900" width="3" height="9"/><rect x="1760" y="895" width="2" height="7"/><rect x="1880" y="902" width="3" height="9"/>
  </g>
</svg>
