<svg xmlns="http://www.w3.org/2000/svg" viewBox="0 0 1920 1080" preserveAspectRatio="xMidYMax slice">
  <defs>
    <radialGradient id="spaceBg" cx="0.65" cy="0.35" r="0.8"><stop offset="0" stop-color="#2a1550"/><stop offset="0.4" stop-color="#160830"/><stop offset="1" stop-color="#050215"/></radialGradient>
    <radialGradient id="nebula1" cx="0.5" cy="0.5" r="0.5"><stop offset="0" stop-color="#8840cc" stop-opacity="0.6"/><stop offset="0.5" stop-color="#5820a0" stop-opacity="0.3"/><stop offset="1" stop-color="#5820a0" stop-opacity="0"/></radialGradient>
    <radialGradient id="nebula2" cx="0.5" cy="0.5" r="0.5"><stop offset="0" stop-color="#ff4088" stop-opacity="0.5"/><stop offset="0.5" stop-color="#cc2060" stop-opacity="0.25"/><stop offset="1" stop-color="#cc2060" stop-opacity="0"/></radialGradient>
    <radialGradient id="nebula3" cx="0.5" cy="0.5" r="0.5"><stop offset="0" stop-color="#40a0ff" stop-opacity="0.5"/><stop offset="0.5" stop-color="#2060cc" stop-opacity="0.25"/><stop offset="1" stop-color="#2060cc" stop-opacity="0"/></radialGradient>
    <radialGradient id="planet" cx="0.35" cy="0.35" r="0.7"><stop offset="0" stop-color="#ff8040"/><stop offset="0.4" stop-color="#c85020"/><stop offset="0.75" stop-color="#702818"/><stop offset="1" stop-color="#20080a"/></radialGradient>
    <radialGradient id="planetAtm" cx="0.5" cy="0.5" r="0.5"><stop offset="0.85" stop-color="#ff8040" stop-opacity="0"/><stop offset="0.95" stop-color="#ff8040" stop-opacity="0.4"/><stop offset="1" stop-color="#ff8040" stop-opacity="0"/></radialGradient>
  </defs>
  <rect width="1920" height="1080" fill="url(#spaceBg)"/>
  <ellipse cx="600" cy="400" rx="600" ry="280" fill="url(#nebula1)"/>
  <ellipse cx="1400" cy="550" rx="550" ry="250" fill="url(#nebula2)"/>
  <ellipse cx="300" cy="700" rx="450" ry="200" fill="url(#nebula3)"/>
  <ellipse cx="1600" cy="200" rx="400" ry="180" fill="url(#nebula1)" opacity="0.7"/>
  <g fill="#fff">
    <circle cx="80" cy="120" r="0.8" opacity="0.7"/><circle cx="160" cy="60" r="1" opacity="0.9"/><circle cx="240" cy="180" r="0.6" opacity="0.5"/><circle cx="340" cy="100" r="1.2" opacity="0.95"/><circle cx="420" cy="220" r="0.8" opacity="0.7"/><circle cx="520" cy="80" r="0.5" opacity="0.4"/><circle cx="620" cy="200" r="1" opacity="0.8"/><circle cx="720" cy="140" r="0.7" opacity="0.6"/><circle cx="820" cy="60" r="1.3" opacity="0.95"/><circle cx="920" cy="180" r="0.6" opacity="0.5"/><circle cx="1020" cy="120" r="0.9" opacity="0.75"/><circle cx="1120" cy="40" r="1.1" opacity="0.9"/><circle cx="1220" cy="200" r="0.8" opacity="0.7"/><circle cx="1320" cy="80" r="0.5" opacity="0.4"/><circle cx="1420" cy="160" r="1" opacity="0.85"/><circle cx="1520" cy="100" r="0.7" opacity="0.6"/><circle cx="1620" cy="220" r="1.2" opacity="0.95"/><circle cx="1720" cy="60" r="0.6" opacity="0.5"/><circle cx="1820" cy="140" r="0.9" opacity="0.75"/><circle cx="1900" cy="80" r="0.8" opacity="0.7"/>
    <circle cx="60" cy="300" r="0.7" opacity="0.6"/><circle cx="180" cy="340" r="1" opacity="0.85"/><circle cx="280" cy="400" r="0.5" opacity="0.4"/><circle cx="380" cy="360" r="0.9" opacity="0.75"/><circle cx="500" cy="420" r="0.8" opacity="0.65"/><circle cx="620" cy="380" r="1.1" opacity="0.9"/><circle cx="760" cy="440" r="0.6" opacity="0.5"/><circle cx="880" cy="320" r="0.8" opacity="0.7"/><circle cx="1000" cy="460" r="1" opacity="0.85"/><circle cx="1140" cy="360" r="0.7" opacity="0.6"/><circle cx="1280" cy="400" r="0.9" opacity="0.75"/><circle cx="1620" cy="380" r="0.8" opacity="0.7"/><circle cx="1760" cy="440" r="1.1" opacity="0.9"/><circle cx="1880" cy="340" r="0.6" opacity="0.5"/>
    <circle cx="100" cy="540" r="0.8" opacity="0.7"/><circle cx="220" cy="600" r="1" opacity="0.85"/><circle cx="340" cy="560" r="0.6" opacity="0.5"/><circle cx="460" cy="620" r="0.9" opacity="0.75"/><circle cx="620" cy="560" r="0.7" opacity="0.6"/><circle cx="760" cy="620" r="1.2" opacity="0.95"/><circle cx="900" cy="540" r="0.8" opacity="0.7"/><circle cx="1060" cy="600" r="0.5" opacity="0.4"/><circle cx="1220" cy="560" r="1" opacity="0.85"/><circle cx="1360" cy="620" r="0.7" opacity="0.6"/><circle cx="1720" cy="600" r="0.9" opacity="0.75"/><circle cx="1880" cy="560" r="0.6" opacity="0.5"/>
    <circle cx="80" cy="760" r="0.7" opacity="0.6"/><circle cx="200" cy="820" r="1.1" opacity="0.9"/><circle cx="340" cy="780" r="0.6" opacity="0.5"/><circle cx="480" cy="840" r="0.9" opacity="0.75"/><circle cx="620" cy="780" r="0.8" opacity="0.7"/><circle cx="780" cy="840" r="1" opacity="0.85"/><circle cx="920" cy="760" r="0.5" opacity="0.4"/><circle cx="1080" cy="820" r="0.7" opacity="0.6"/><circle cx="1240" cy="780" r="1.2" opacity="0.95"/><circle cx="1400" cy="840" r="0.8" opacity="0.7"/><circle cx="1560" cy="780" r="0.9" opacity="0.75"/><circle cx="1700" cy="840" r="0.6" opacity="0.5"/><circle cx="1860" cy="780" r="1" opacity="0.85"/>
    <circle cx="120" cy="960" r="0.7" opacity="0.6"/><circle cx="280" cy="920" r="0.9" opacity="0.75"/><circle cx="440" cy="980" r="0.5" opacity="0.4"/><circle cx="600" cy="940" r="1" opacity="0.85"/><circle cx="760" cy="1000" r="0.6" opacity="0.5"/><circle cx="920" cy="960" r="0.8" opacity="0.7"/><circle cx="1080" cy="920" r="1.1" opacity="0.9"/><circle cx="1240" cy="980" r="0.7" opacity="0.6"/><circle cx="1400" cy="940" r="0.9" opacity="0.75"/><circle cx="1560" cy="1000" r="0.6" opacity="0.5"/><circle cx="1720" cy="960" r="0.8" opacity="0.7"/><circle cx="1880" cy="920" r="1" opacity="0.85"/>
  </g>
  <g stroke="#fff" stroke-width="1" opacity="0.8">
    <line x1="250" y1="140" x2="250" y2="170"/><line x1="235" y1="155" x2="265" y2="155"/><line x1="1080" y1="280" x2="1080" y2="310"/><line x1="1065" y1="295" x2="1095" y2="295"/><line x1="480" y1="480" x2="480" y2="510"/><line x1="465" y1="495" x2="495" y2="495"/><line x1="1550" y1="720" x2="1550" y2="750"/><line x1="1535" y1="735" x2="1565" y2="735"/><line x1="320" y1="860" x2="320" y2="890"/><line x1="305" y1="875" x2="335" y2="875"/>
  </g>
  <g fill="#fff">
    <circle cx="250" cy="155" r="2" opacity="0.95"/><circle cx="1080" cy="295" r="2.5" opacity="1"/><circle cx="480" cy="495" r="2.2" opacity="0.95"/><circle cx="1550" cy="735" r="2" opacity="0.95"/><circle cx="320" cy="875" r="1.8" opacity="0.9"/>
  </g>
  <circle cx="280" cy="820" r="220" fill="url(#planetAtm)"/>
  <circle cx="280" cy="820" r="180" fill="url(#planet)"/>
  <g fill="#401010" opacity="0.5">
    <circle cx="220" cy="780" r="18"/><circle cx="280" cy="750" r="12"/><circle cx="330" cy="810" r="22"/><circle cx="240" cy="860" r="16"/><circle cx="310" cy="890" r="14"/><circle cx="190" cy="840" r="10"/>
  </g>
  <path d="M 280 640 A 180 180 0 0 1 280 1000 A 180 180 0 0 1 160 940 Z" fill="#050008" opacity="0.5"/>
  <circle cx="1700" cy="380" r="50" fill="#6a8aa0"/>
  <circle cx="1700" cy="380" r="48" fill="url(#planet)" opacity="0.4"/>
  <circle cx="1685" cy="370" r="8" fill="#3a5668" opacity="0.6"/>
  <circle cx="1715" cy="395" r="5" fill="#3a5668" opacity="0.5"/>
  <path d="M 1700 330 A 50 50 0 0 1 1700 430 A 50 50 0 0 1 1670 420 Z" fill="#050008" opacity="0.4"/>
  <ellipse cx="1700" cy="385" rx="85" ry="12" fill="none" stroke="#aa7050" stroke-width="3" opacity="0.7"/>
  <ellipse cx="1700" cy="385" rx="80" ry="9" fill="none" stroke="#c89060" stroke-width="1.5" opacity="0.5"/>
</svg>
